<?xml version="1.0" encoding="UTF-8" standalone="no"?>
<!DOCTYPE svg PUBLIC "-//W3C//DTD SVG 1.1//EN"
 "http://www.w3.org/Graphics/SVG/1.1/DTD/svg11.dtd">
<!-- Generated by graphviz version 2.40.1 (20161225.0304)
 -->
<!-- Title: state transitions Pages: 1 -->
<svg width="659pt" height="834pt"
 viewBox="0.00 0.00 659.00 834.00" xmlns="http://www.w3.org/2000/svg" xmlns:xlink="http://www.w3.org/1999/xlink">
<g id="graph0" class="graph" transform="scale(1 1) rotate(0) translate(4 830)">
<title>state transitions</title>
<polygon fill="#ffffff" stroke="transparent" points="-4,4 -4,-830 655,-830 655,4 -4,4"/>
<g id="clust1" class="cluster state regular">
<title>cluster_state</title>
<path fill="none" stroke="#000000" stroke-width="2" d="M20,-8C20,-8 631,-8 631,-8 637,-8 643,-14 643,-20 643,-20 643,-806 643,-806 643,-812 637,-818 631,-818 631,-818 20,-818 20,-818 14,-818 8,-812 8,-806 8,-806 8,-20 8,-20 8,-14 14,-8 20,-8"/>
<text text-anchor="start" x="312.4944" y="-799.2" font-family="Helvetica,sans-Serif" font-size="12.00" fill="#000000">state</text>
</g>
<!-- state -->
<!-- idle -->
<g id="node2" class="node state regular">
<title>idle</title>
<polygon fill="#ffffff" fill-opacity="0.003922" stroke="transparent" stroke-width="2" points="574,-780 518,-780 518,-744 574,-744 574,-780"/>
<text text-anchor="start" x="536.6664" y="-758.2" font-family="Helvetica,sans-Serif" font-size="12.00" fill="#000000">idle</text>
<path fill="none" stroke="#000000" stroke-width="2" d="M530.3333,-745C530.3333,-745 561.6667,-745 561.6667,-745 567.3333,-745 573,-750.6667 573,-756.3333 573,-756.3333 573,-767.6667 573,-767.6667 573,-773.3333 567.3333,-779 561.6667,-779 561.6667,-779 530.3333,-779 530.3333,-779 524.6667,-779 519,-773.3333 519,-767.6667 519,-767.6667 519,-756.3333 519,-756.3333 519,-750.6667 524.6667,-745 530.3333,-745"/>
</g>
<!-- idle&#45;&gt;state -->
<g id="edge2" class="edge transition">
<title>idle&#45;&gt;state</title>
<path fill="none" stroke="#ff0000" d="M517.9995,-754.7251C501.9636,-748.6859 485,-738.2262 485,-721 485,-721 485,-721 485,-612.5 485,-594.2148 498.6884,-463.5193 511,-450 531.3951,-427.6042 558.4438,-456.9415 577,-433 596.5224,-407.8119 545.5878,-381.7436 523.567,-371.9937"/>
<polygon fill="#ff0000" stroke="#ff0000" points="524.6398,-368.6488 514.0634,-368.0242 521.9419,-375.108 524.6398,-368.6488"/>
<text text-anchor="start" x="488" y="-583" font-family="Helvetica,sans-Serif" font-size="10.00" fill="#ff0000">not (fifo.i_wr_cnt = 3) &#160;&#160;</text>
</g>
<!-- check_ethertype -->
<g id="node3" class="node state regular">
<title>check_ethertype</title>
<polygon fill="#ffffff" fill-opacity="0.003922" stroke="transparent" stroke-width="2" points="319,-698 209,-698 209,-662 319,-662 319,-698"/>
<text text-anchor="start" x="219.9846" y="-676.2" font-family="Helvetica,sans-Serif" font-size="12.00" fill="#000000">check_ethertype</text>
<path fill="none" stroke="#000000" stroke-width="2" d="M221.3333,-663C221.3333,-663 306.6667,-663 306.6667,-663 312.3333,-663 318,-668.6667 318,-674.3333 318,-674.3333 318,-685.6667 318,-685.6667 318,-691.3333 312.3333,-697 306.6667,-697 306.6667,-697 221.3333,-697 221.3333,-697 215.6667,-697 210,-691.3333 210,-685.6667 210,-685.6667 210,-674.3333 210,-674.3333 210,-668.6667 215.6667,-663 221.3333,-663"/>
</g>
<!-- idle&#45;&gt;check_ethertype -->
<g id="edge1" class="edge transition">
<title>idle&#45;&gt;check_ethertype</title>
<path fill="none" stroke="#000000" d="M517.8713,-756.0809C488.3845,-749.6804 440.808,-738.7986 400.369,-727 374.4865,-719.4485 346.254,-709.9355 322.2262,-701.4467"/>
<polygon fill="#000000" stroke="#000000" points="323.146,-698.059 312.5513,-698.0041 320.7993,-704.654 323.146,-698.059"/>
<text text-anchor="start" x="400" y="-718" font-family="Helvetica,sans-Serif" font-size="10.00" fill="#000000">fifo.i_wr_cnt = 3 &#160;&#160;</text>
</g>
<!-- check_IPv4_protocol -->
<g id="node4" class="node state regular">
<title>check_IPv4_protocol</title>
<polygon fill="#ffffff" fill-opacity="0.003922" stroke="transparent" stroke-width="2" points="333.5,-604 200.5,-604 200.5,-568 333.5,-568 333.5,-604"/>
<text text-anchor="start" x="211.8164" y="-582.2" font-family="Helvetica,sans-Serif" font-size="12.00" fill="#000000">check_IPv4_protocol</text>
<path fill="none" stroke="#000000" stroke-width="2" d="M212.8333,-569C212.8333,-569 321.1667,-569 321.1667,-569 326.8333,-569 332.5,-574.6667 332.5,-580.3333 332.5,-580.3333 332.5,-591.6667 332.5,-591.6667 332.5,-597.3333 326.8333,-603 321.1667,-603 321.1667,-603 212.8333,-603 212.8333,-603 207.1667,-603 201.5,-597.3333 201.5,-591.6667 201.5,-591.6667 201.5,-580.3333 201.5,-580.3333 201.5,-574.6667 207.1667,-569 212.8333,-569"/>
</g>
<!-- check_ethertype&#45;&gt;check_IPv4_protocol -->
<g id="edge3" class="edge transition">
<title>check_ethertype&#45;&gt;check_IPv4_protocol</title>
<path fill="none" stroke="#000000" d="M264.5784,-661.8759C265.0101,-648.3516 265.6079,-629.6192 266.1016,-614.1514"/>
<polygon fill="#000000" stroke="#000000" points="269.6025,-614.1751 266.4233,-604.0685 262.606,-613.9517 269.6025,-614.1751"/>
<text text-anchor="start" x="265" y="-636" font-family="Helvetica,sans-Serif" font-size="10.00" fill="#000000">fifo.i_data(31 downto 16) = Ethertype_IPv4 &#160;&#160;</text>
<text text-anchor="start" x="265" y="-624" font-family="Helvetica,sans-Serif" font-size="10.00" fill="#000000">fifo.i_wr_cnt = 5 &#160;&#160;</text>
</g>
<!-- data_deny -->
<g id="node11" class="node state regular">
<title>data_deny</title>
<polygon fill="#ffffff" fill-opacity="0.003922" stroke="transparent" stroke-width="2" points="163,-216 85,-216 85,-180 163,-180 163,-216"/>
<text text-anchor="start" x="95.9848" y="-194.2" font-family="Helvetica,sans-Serif" font-size="12.00" fill="#000000">data_deny</text>
<path fill="none" stroke="#000000" stroke-width="2" d="M97.3333,-181C97.3333,-181 150.6667,-181 150.6667,-181 156.3333,-181 162,-186.6667 162,-192.3333 162,-192.3333 162,-203.6667 162,-203.6667 162,-209.3333 156.3333,-215 150.6667,-215 150.6667,-215 97.3333,-215 97.3333,-215 91.6667,-215 86,-209.3333 86,-203.6667 86,-203.6667 86,-192.3333 86,-192.3333 86,-186.6667 91.6667,-181 97.3333,-181"/>
</g>
<!-- check_ethertype&#45;&gt;data_deny -->
<g id="edge4" class="edge transition">
<title>check_ethertype&#45;&gt;data_deny</title>
<path fill="none" stroke="#000000" d="M208.7142,-673.9184C141.8072,-665.792 38,-650.3828 38,-633 38,-633 38,-633 38,-239 38,-229.3697 55.7935,-220.0174 75.1933,-212.6827"/>
<polygon fill="#000000" stroke="#000000" points="76.5403,-215.9181 84.775,-209.2517 74.1804,-209.3278 76.5403,-215.9181"/>
<text text-anchor="start" x="38" y="-424" font-family="Helvetica,sans-Serif" font-size="10.00" fill="#000000">fifo.i_wr_cnt = 5 &#160;&#160;</text>
<text text-anchor="start" x="38" y="-412" font-family="Helvetica,sans-Serif" font-size="10.00" fill="#000000">not (fifo.i_data(31 downto 16) = Ethertype_IPv4) &#160;&#160;</text>
</g>
<!-- IPv4_source_addr -->
<g id="node5" class="node state regular">
<title>IPv4_source_addr</title>
<polygon fill="#ffffff" fill-opacity="0.003922" stroke="transparent" stroke-width="2" points="409.5,-486 290.5,-486 290.5,-450 409.5,-450 409.5,-486"/>
<text text-anchor="start" x="301.8178" y="-464.2" font-family="Helvetica,sans-Serif" font-size="12.00" fill="#000000">IPv4_source_addr</text>
<path fill="none" stroke="#000000" stroke-width="2" d="M302.8333,-451C302.8333,-451 397.1667,-451 397.1667,-451 402.8333,-451 408.5,-456.6667 408.5,-462.3333 408.5,-462.3333 408.5,-473.6667 408.5,-473.6667 408.5,-479.3333 402.8333,-485 397.1667,-485 397.1667,-485 302.8333,-485 302.8333,-485 297.1667,-485 291.5,-479.3333 291.5,-473.6667 291.5,-473.6667 291.5,-462.3333 291.5,-462.3333 291.5,-456.6667 297.1667,-451 302.8333,-451"/>
</g>
<!-- check_IPv4_protocol&#45;&gt;IPv4_source_addr -->
<g id="edge5" class="edge transition">
<title>check_IPv4_protocol&#45;&gt;IPv4_source_addr</title>
<path fill="none" stroke="#000000" d="M279.7869,-567.8211C293.5964,-548.1882 315.726,-516.7269 331.4473,-494.3761"/>
<polygon fill="#000000" stroke="#000000" points="334.4443,-496.1988 337.3348,-486.0059 328.7188,-492.1716 334.4443,-496.1988"/>
<text text-anchor="start" x="325" y="-542" font-family="Helvetica,sans-Serif" font-size="10.00" fill="#000000">fifo.i_data(7 downto 0) = ICMP or&#13; &#160;&#160;</text>
<text text-anchor="start" x="325" y="-530" font-family="Helvetica,sans-Serif" font-size="10.00" fill="#000000">fifo.i_data(7 downto 0) = IPX or&#13; &#160;&#160;</text>
<text text-anchor="start" x="325" y="-518" font-family="Helvetica,sans-Serif" font-size="10.00" fill="#000000">fifo.i_data(7 downto 0) = TCP &#160;&#160;</text>
<text text-anchor="start" x="325" y="-506" font-family="Helvetica,sans-Serif" font-size="10.00" fill="#000000">fifo.i_wr_cnt = 7 &#160;&#160;</text>
</g>
<!-- check_IPv4_protocol&#45;&gt;data_deny -->
<g id="edge6" class="edge transition">
<title>check_IPv4_protocol&#45;&gt;data_deny</title>
<path fill="none" stroke="#000000" d="M269.5796,-567.8468C274.8853,-527.4044 284.8608,-431.674 264,-409 238.4293,-381.2067 120.2363,-420.0089 94.902,-392 53.1479,-345.8377 85.8428,-266.7094 107.9666,-225.2134"/>
<polygon fill="#000000" stroke="#000000" points="111.1523,-226.6839 112.904,-216.2349 105.0185,-223.3109 111.1523,-226.6839"/>
<text text-anchor="start" x="94" y="-383" font-family="Helvetica,sans-Serif" font-size="10.00" fill="#000000">fifo.i_wr_cnt = 7 &#160;&#160;</text>
<text text-anchor="start" x="94" y="-371" font-family="Helvetica,sans-Serif" font-size="10.00" fill="#000000">not (fifo.i_data(7 downto 0) = ICMP or&#13; &#160;&#160;</text>
<text text-anchor="start" x="94" y="-359" font-family="Helvetica,sans-Serif" font-size="10.00" fill="#000000">fifo.i_data(7 downto 0) = IPX or&#13; &#160;&#160;</text>
<text text-anchor="start" x="94" y="-347" font-family="Helvetica,sans-Serif" font-size="10.00" fill="#000000">fifo.i_data(7 downto 0) = TCP) &#160;&#160;</text>
</g>
<!-- IPv4_source_addr&#45;&gt;state -->
<g id="edge8" class="edge transition">
<title>IPv4_source_addr&#45;&gt;state</title>
<path fill="none" stroke="#ff0000" d="M395.6236,-449.9785C406.7994,-444.9729 418.5467,-439.1945 429,-433 459.3456,-415.0177 491.4366,-387.9527 505.9902,-375.1706"/>
<polygon fill="#ff0000" stroke="#ff0000" points="508.754,-377.3942 513.8723,-368.1177 504.0862,-372.1777 508.754,-377.3942"/>
<text text-anchor="start" x="464" y="-424" font-family="Helvetica,sans-Serif" font-size="10.00" fill="#ff0000">not (fifo.i_wr_cnt = 9) &#160;&#160;</text>
<text text-anchor="start" x="464" y="-412" font-family="Helvetica,sans-Serif" font-size="10.00" fill="#ff0000">not (fifo.i_wr_cnt = 11) &#160;&#160;</text>
</g>
<!-- check_IPv4_source_addr -->
<g id="node6" class="node state regular">
<title>check_IPv4_source_addr</title>
<polygon fill="#ffffff" fill-opacity="0.003922" stroke="transparent" stroke-width="2" points="440.5,-386 283.5,-386 283.5,-350 440.5,-350 440.5,-386"/>
<text text-anchor="start" x="294.8116" y="-364.2" font-family="Helvetica,sans-Serif" font-size="12.00" fill="#000000">check_IPv4_source_addr</text>
<path fill="none" stroke="#000000" stroke-width="2" d="M295.8333,-351C295.8333,-351 428.1667,-351 428.1667,-351 433.8333,-351 439.5,-356.6667 439.5,-362.3333 439.5,-362.3333 439.5,-373.6667 439.5,-373.6667 439.5,-379.3333 433.8333,-385 428.1667,-385 428.1667,-385 295.8333,-385 295.8333,-385 290.1667,-385 284.5,-379.3333 284.5,-373.6667 284.5,-373.6667 284.5,-362.3333 284.5,-362.3333 284.5,-356.6667 290.1667,-351 295.8333,-351"/>
</g>
<!-- IPv4_source_addr&#45;&gt;check_IPv4_source_addr -->
<g id="edge7" class="edge transition">
<title>IPv4_source_addr&#45;&gt;check_IPv4_source_addr</title>
<path fill="none" stroke="#000000" d="M345.1735,-449.7716C342.7795,-438.0337 340.9495,-422.5013 343.81,-409 344.7618,-404.5077 346.2402,-399.9096 347.9522,-395.4927"/>
<polygon fill="#000000" stroke="#000000" points="351.2034,-396.7922 351.9593,-386.2244 344.7782,-394.0143 351.2034,-396.7922"/>
<text text-anchor="start" x="343" y="-418" font-family="Helvetica,sans-Serif" font-size="10.00" fill="#000000">fifo.i_wr_cnt = 11 &#160;&#160;</text>
</g>
<!-- check_IPv4_des_addr -->
<g id="node7" class="node state regular">
<title>check_IPv4_des_addr</title>
<polygon fill="#ffffff" fill-opacity="0.003922" stroke="transparent" stroke-width="2" points="478,-298 338,-298 338,-262 478,-262 478,-298"/>
<text text-anchor="start" x="348.6444" y="-276.2" font-family="Helvetica,sans-Serif" font-size="12.00" fill="#000000">check_IPv4_des_addr</text>
<path fill="none" stroke="#000000" stroke-width="2" d="M350.3333,-263C350.3333,-263 465.6667,-263 465.6667,-263 471.3333,-263 477,-268.6667 477,-274.3333 477,-274.3333 477,-285.6667 477,-285.6667 477,-291.3333 471.3333,-297 465.6667,-297 465.6667,-297 350.3333,-297 350.3333,-297 344.6667,-297 339,-291.3333 339,-285.6667 339,-285.6667 339,-274.3333 339,-274.3333 339,-268.6667 344.6667,-263 350.3333,-263"/>
</g>
<!-- check_IPv4_source_addr&#45;&gt;check_IPv4_des_addr -->
<g id="edge10" class="edge transition">
<title>check_IPv4_source_addr&#45;&gt;check_IPv4_des_addr</title>
<path fill="none" stroke="#000000" d="M371.5312,-349.7663C377.9457,-337.4952 386.5182,-321.0957 393.7401,-307.2798"/>
<polygon fill="#000000" stroke="#000000" points="396.9502,-308.694 398.481,-298.2103 390.7466,-305.4512 396.9502,-308.694"/>
<text text-anchor="start" x="389" y="-318" font-family="Helvetica,sans-Serif" font-size="10.00" fill="#000000">fifo.i_wr_cnt &gt; 12 &#160;&#160;</text>
</g>
<!-- check_IPv4_source_addr&#45;&gt;data_deny -->
<g id="edge9" class="edge transition">
<title>check_IPv4_source_addr&#45;&gt;data_deny</title>
<path fill="none" stroke="#000000" d="M292.9434,-349.9958C283.9068,-347.8576 274.7504,-345.7991 266,-344 234.6882,-337.5622 124,-352.9668 124,-321 124,-321 124,-321 124,-239 124,-234.9516 124,-230.6784 124,-226.48"/>
<polygon fill="#000000" stroke="#000000" points="127.5001,-226.3687 124,-216.3688 120.5001,-226.3688 127.5001,-226.3687"/>
<text text-anchor="start" x="124" y="-277" font-family="Helvetica,sans-Serif" font-size="10.00" fill="#000000">IPv4.source(31 downto 0) /= source_addr &#160;&#160;</text>
</g>
<!-- wait_data -->
<g id="node8" class="node state regular">
<title>wait_data</title>
<polygon fill="#ffffff" fill-opacity="0.003922" stroke="transparent" stroke-width="2" points="428.5,-216 355.5,-216 355.5,-180 428.5,-180 428.5,-216"/>
<text text-anchor="start" x="366.8254" y="-194.2" font-family="Helvetica,sans-Serif" font-size="12.00" fill="#000000">wait_data</text>
<path fill="none" stroke="#000000" stroke-width="2" d="M367.8333,-181C367.8333,-181 416.1667,-181 416.1667,-181 421.8333,-181 427.5,-186.6667 427.5,-192.3333 427.5,-192.3333 427.5,-203.6667 427.5,-203.6667 427.5,-209.3333 421.8333,-215 416.1667,-215 416.1667,-215 367.8333,-215 367.8333,-215 362.1667,-215 356.5,-209.3333 356.5,-203.6667 356.5,-203.6667 356.5,-192.3333 356.5,-192.3333 356.5,-186.6667 362.1667,-181 367.8333,-181"/>
</g>
<!-- check_IPv4_des_addr&#45;&gt;wait_data -->
<g id="edge12" class="edge transition">
<title>check_IPv4_des_addr&#45;&gt;wait_data</title>
<path fill="none" stroke="#000000" d="M404.4491,-261.8015C402.3983,-251.2915 399.7757,-237.8503 397.4669,-226.0177"/>
<polygon fill="#000000" stroke="#000000" points="400.8914,-225.2922 395.541,-216.1476 394.021,-226.6328 400.8914,-225.2922"/>
<text text-anchor="start" x="401" y="-236" font-family="Helvetica,sans-Serif" font-size="10.00" fill="#000000">not (IPv4.dest(31 downto 0) /= dest_addr) &#160;&#160;</text>
</g>
<!-- check_IPv4_des_addr&#45;&gt;data_deny -->
<g id="edge11" class="edge transition">
<title>check_IPv4_des_addr&#45;&gt;data_deny</title>
<path fill="none" stroke="#000000" d="M337.7629,-265.2679C332.0958,-264.1403 326.4547,-263.0382 321,-262 277.666,-253.7525 265.2609,-258.3418 223.215,-245 203.7478,-238.8227 183.1944,-229.582 165.875,-220.9248"/>
<polygon fill="#000000" stroke="#000000" points="167.1114,-217.6264 156.6132,-216.1984 163.9295,-223.8614 167.1114,-217.6264"/>
<text text-anchor="start" x="223" y="-236" font-family="Helvetica,sans-Serif" font-size="10.00" fill="#000000">IPv4.dest(31 downto 0) /= dest_addr &#160;&#160;</text>
</g>
<!-- allow_data -->
<g id="node9" class="node state regular">
<title>allow_data</title>
<polygon fill="#ffffff" fill-opacity="0.003922" stroke="transparent" stroke-width="2" points="476.5,-134 397.5,-134 397.5,-98 476.5,-98 476.5,-134"/>
<text text-anchor="start" x="408.826" y="-112.2" font-family="Helvetica,sans-Serif" font-size="12.00" fill="#000000">allow_data</text>
<path fill="none" stroke="#000000" stroke-width="2" d="M409.8333,-99C409.8333,-99 464.1667,-99 464.1667,-99 469.8333,-99 475.5,-104.6667 475.5,-110.3333 475.5,-110.3333 475.5,-121.6667 475.5,-121.6667 475.5,-127.3333 469.8333,-133 464.1667,-133 464.1667,-133 409.8333,-133 409.8333,-133 404.1667,-133 398.5,-127.3333 398.5,-121.6667 398.5,-121.6667 398.5,-110.3333 398.5,-110.3333 398.5,-104.6667 404.1667,-99 409.8333,-99"/>
</g>
<!-- wait_data&#45;&gt;allow_data -->
<g id="edge13" class="edge transition">
<title>wait_data&#45;&gt;allow_data</title>
<path fill="none" stroke="#000000" d="M401.987,-179.8015C407.9295,-168.973 415.5795,-155.033 422.2122,-142.9466"/>
<polygon fill="#000000" stroke="#000000" points="425.2983,-144.5981 427.041,-134.1476 419.1616,-141.2304 425.2983,-144.5981"/>
<text text-anchor="middle" x="418.3895" y="-154" font-family="Helvetica,sans-Serif" font-size="10.00" fill="#000000"> </text>
</g>
<!-- allow_data&#45;&gt;allow_data -->
<g id="edge15" class="edge transition">
<title>allow_data&#45;&gt;allow_data</title>
<path fill="none" stroke="#000000" d="M476.6309,-120.8702C488.8806,-120.7719 498.5,-119.1484 498.5,-116 498.5,-113.7863 493.7443,-112.3265 486.6625,-111.6206"/>
<polygon fill="#000000" stroke="#000000" points="486.7901,-108.1228 476.6309,-111.1298 486.4479,-115.1144 486.7901,-108.1228"/>
<text text-anchor="start" x="498.5" y="-113" font-family="Helvetica,sans-Serif" font-size="10.00" fill="#000000">not (fifo.empty = &#39;1&#39;) &#160;&#160;</text>
</g>
<!-- last_word -->
<g id="node10" class="node state regular">
<title>last_word</title>
<polygon fill="#ffffff" fill-opacity="0.003922" stroke="transparent" stroke-width="2" points="578.5,-52 505.5,-52 505.5,-16 578.5,-16 578.5,-52"/>
<text text-anchor="start" x="516.8308" y="-30.2" font-family="Helvetica,sans-Serif" font-size="12.00" fill="#000000">last_word</text>
<path fill="none" stroke="#000000" stroke-width="2" d="M517.8333,-17C517.8333,-17 566.1667,-17 566.1667,-17 571.8333,-17 577.5,-22.6667 577.5,-28.3333 577.5,-28.3333 577.5,-39.6667 577.5,-39.6667 577.5,-45.3333 571.8333,-51 566.1667,-51 566.1667,-51 517.8333,-51 517.8333,-51 512.1667,-51 506.5,-45.3333 506.5,-39.6667 506.5,-39.6667 506.5,-28.3333 506.5,-28.3333 506.5,-22.6667 512.1667,-17 517.8333,-17"/>
</g>
<!-- allow_data&#45;&gt;last_word -->
<g id="edge14" class="edge transition">
<title>allow_data&#45;&gt;last_word</title>
<path fill="none" stroke="#000000" d="M460.3029,-97.8015C475.1203,-86.2298 494.4875,-71.105 510.646,-58.486"/>
<polygon fill="#000000" stroke="#000000" points="513.0351,-61.0611 518.7622,-52.1476 508.7266,-55.5441 513.0351,-61.0611"/>
<text text-anchor="start" x="496" y="-72" font-family="Helvetica,sans-Serif" font-size="10.00" fill="#000000">fifo.empty = &#39;1&#39; &#160;&#160;</text>
</g>
<!-- last_word&#45;&gt;idle -->
<g id="edge16" class="edge transition">
<title>last_word&#45;&gt;idle</title>
<path fill="none" stroke="#000000" d="M578.6064,-43.5776C603.5234,-51.2103 632,-62.6376 632,-75 632,-335.5 632,-335.5 632,-335.5 632,-382.6195 634,-394.3805 634,-441.5 634,-721 634,-721 634,-721 634,-732.7768 607.777,-743.9136 583.9604,-751.5998"/>
<polygon fill="#000000" stroke="#000000" points="582.8511,-748.2792 574.3281,-754.5729 584.9156,-754.9679 582.8511,-748.2792"/>
<text text-anchor="middle" x="634.3895" y="-365" font-family="Helvetica,sans-Serif" font-size="10.00" fill="#000000"> </text>
</g>
<!-- data_deny&#45;&gt;idle -->
<g id="edge17" class="edge transition">
<title>data_deny&#45;&gt;idle</title>
<path fill="none" stroke="#000000" d="M163.1106,-201.3412C207.2702,-205.0775 281.2764,-211.2298 345,-216 372.6537,-218.0701 575.0708,-212.7343 594,-233 609.1842,-249.2563 596.6633,-414.0581 585,-433 576.9542,-446.067 562.679,-436.7444 554.948,-450 546.8872,-463.8211 551.3443,-470.4111 554.948,-486 556.4286,-492.4049 610,-583.9391 610,-612.5 610,-721 610,-721 610,-721 610,-735.7956 597.7226,-745.4957 583.9226,-751.7257"/>
<polygon fill="#000000" stroke="#000000" points="582.2967,-748.6033 574.2576,-755.5043 584.8456,-755.1228 582.2967,-748.6033"/>
<text text-anchor="start" x="554" y="-465" font-family="Helvetica,sans-Serif" font-size="10.00" fill="#000000">fifo.empty = &#39;1&#39; &#160;&#160;</text>
</g>
</g>
</svg>
